<svg xmlns="http://www.w3.org/2000/svg" fill="none" viewBox="0 0 21 21" height="21" width="21">
<g clip-path="url(#clip0_21106_52376)">
<path stroke-linejoin="round" stroke-linecap="round" stroke="black" d="M15.5879 9.27735C16.3642 9.27676 17.13 9.45723 17.8244 9.80442C18.5187 10.1516 19.1226 10.6559 19.5879 11.2773"></path>
<path stroke-linejoin="round" stroke-linecap="round" stroke="black" d="M0.919922 11.2773C1.38525 10.6559 1.98909 10.1516 2.68346 9.80442C3.37783 9.45723 4.14359 9.27676 4.91992 9.27735"></path>
<path stroke-linejoin="round" stroke-linecap="round" stroke="black" d="M10.2533 14.6081C12.0942 14.6081 13.5866 13.1157 13.5866 11.2747C13.5866 9.43379 12.0942 7.94141 10.2533 7.94141C8.41231 7.94141 6.91992 9.43379 6.91992 11.2747C6.91992 13.1157 8.41231 14.6081 10.2533 14.6081Z"></path>
<path stroke-linejoin="round" stroke-linecap="round" stroke="black" d="M5.58789 17.276C6.06646 16.4639 6.74869 15.7907 7.56714 15.3231C8.38558 14.8554 9.31191 14.6094 10.2546 14.6094C11.1972 14.6094 12.1235 14.8554 12.942 15.3231C13.7604 15.7907 14.4426 16.4639 14.9212 17.276"></path>
<path stroke-linejoin="round" stroke-linecap="round" stroke="black" d="M13.0039 5.94141C13.1286 5.45854 13.3862 5.02032 13.7474 4.67649C14.1086 4.33267 14.559 4.09703 15.0474 3.99633C15.5359 3.89564 16.0428 3.93392 16.5105 4.10684C16.9783 4.27975 17.3882 4.58037 17.6937 4.97455C17.9992 5.36873 18.188 5.84067 18.2387 6.33679C18.2895 6.8329 18.2001 7.33329 17.9807 7.78115C17.7613 8.229 17.4207 8.60637 16.9977 8.87038C16.5746 9.1344 16.0859 9.27449 15.5872 9.27474"></path>
<path stroke-linejoin="round" stroke-linecap="round" stroke="black" d="M4.92118 9.27474C4.42248 9.27449 3.93385 9.1344 3.51077 8.87038C3.08769 8.60637 2.74712 8.229 2.52774 7.78115C2.30836 7.33329 2.21896 6.8329 2.2697 6.33679C2.32043 5.84067 2.50926 5.36873 2.81475 4.97455C3.12024 4.58037 3.53014 4.27975 3.99791 4.10684C4.46567 3.93392 4.97255 3.89564 5.46097 3.99633C5.9494 4.09703 6.3998 4.33267 6.76103 4.67649C7.12226 5.02032 7.37984 5.45854 7.50452 5.94141"></path>
</g>
<defs>
<clipPath id="clip0_21106_52376">
<rect transform="translate(0.253906 0.609375)" fill="white" height="20" width="20"></rect>
</clipPath>
</defs>
</svg>
