<svg xmlns="http://www.w3.org/2000/svg" fill="none" viewBox="0 0 21 21" height="21" width="21">
<path stroke-linejoin="round" stroke-linecap="round" stroke="black" d="M4.00326 18.944V14.7773M4.00326 6.44401V2.27734M1.91992 4.36068H6.08659M1.91992 16.8607H6.08659M11.0866 3.11068L9.64144 6.86806C9.40643 7.47909 9.28893 7.7846 9.1062 8.04158C8.94425 8.26934 8.74525 8.46834 8.51749 8.63029C8.26051 8.81301 7.955 8.93052 7.34397 9.16553L3.58659 10.6107L7.34397 12.0558C7.955 12.2908 8.26051 12.4083 8.51749 12.5911C8.74525 12.753 8.94425 12.952 9.1062 13.1798C9.28893 13.4368 9.40643 13.7423 9.64144 14.3533L11.0866 18.1107L12.5317 14.3533C12.7667 13.7423 12.8843 13.4368 13.067 13.1798C13.2289 12.952 13.4279 12.753 13.6557 12.5911C13.9127 12.4083 14.2182 12.2908 14.8292 12.0558L18.5866 10.6107L14.8292 9.16553C14.2182 8.93052 13.9127 8.81301 13.6557 8.63029C13.4279 8.46834 13.2289 8.26934 13.067 8.04158C12.8843 7.7846 12.7667 7.47909 12.5317 6.86806L11.0866 3.11068Z"></path>
</svg>
